<svg width="96" height="69" viewBox="0 0 96 69" fill="none" xmlns="http://www.w3.org/2000/svg">
<path d="M44.8072 67.9456C43.6331 65.0491 41.9064 60.9133 41.18 59.2967C41.0085 58.915 41.0933 58.3773 41.3935 58.0857L48.098 51.5727C48.487 51.1949 49.1361 51.342 49.3241 51.8507L52.6811 60.9345C52.7826 61.2092 52.715 61.5178 52.508 61.7248L46.0365 68.1963C45.6558 68.577 45.0095 68.4446 44.8072 67.9456Z" fill="white"/>
<path d="M73.4221 68.0213L54.8973 25.3918C54.7745 25.1093 54.837 24.7804 55.0548 24.5626L61.9885 17.6289C62.3634 17.254 62.9983 17.3759 63.2078 17.863L81.7173 60.9031C81.8418 61.1926 81.7721 61.529 81.5428 61.7451L74.6245 68.2681C74.2464 68.6245 73.6292 68.4979 73.4221 68.0213Z" fill="white"/>
<path d="M31.4659 0.40707C29.8701 4.74769 15.8759 42.7165 7.61538 61.8462C6.11771 65.3145 1.81191 67.8175 0.431441 68.5492C0.273465 68.6329 0.102865 68.4859 0.163986 68.3179C1.72055 64.0388 14.0424 30.2765 23.5385 7.61539C25.3947 3.18572 29.8375 0.822091 31.2067 0.181135C31.3634 0.107765 31.5256 0.244649 31.4659 0.40707Z" fill="white"/>
<path d="M87.7118 37.834C86.9846 36.9718 84.6682 33.9954 85.3846 31.8462L85.3847 31.8458C86.9231 27.2308 87 26.9999 87.9231 24.6923C89.8514 19.8716 94.2658 17.7676 95.6066 17.225C95.7628 17.1618 95.9094 17.3124 95.8489 17.4697L88.039 37.7756C87.9857 37.9142 87.8076 37.9475 87.7118 37.834Z" fill="white"/>
</svg>
